# xmcd CD database file
#
# Track frame offsets:
#	150
#	15692
#	33415
#	46276
#	64982
#	79207
#	93023
#	104638
#	119561
#	135240
#	151857
#	165815
#	185155
#	201348
#
# Disc length: 2836 seconds
#
# Revision: 0
# Processed by: cddbd v1.4PL0 Copyright (c) Steve Scherf et al.
# Submitted via: CDex 1.50Beta7
#
DISCID=b50b120e
DTITLE=The Suburbillies - Sub-bourbon
DYEAR=2000
DGENRE=Country
TTITLE0=Cry To God
TTITLE1=Audry
TTITLE2=Cancer Song
TTITLE3=Becky
TTITLE4=Jim Hogg Courty
TTITLE5=Turn Me Around
TTITLE6=Tom, Dick and Harry
TTITLE7=Don't Want You
TTITLE8=Emily
TTITLE9=I Have A Feeling
TTITLE10=In Your Mind
TTITLE11=Nothing Wrong With Me
TTITLE12=Running Song
TTITLE13=Your Ghost
EXTD=YEAR: 2000
EXTT0=
EXTT1=
EXTT2=
EXTT3=
EXTT4=
EXTT5=
EXTT6=
EXTT7=
EXTT8=
EXTT9=
EXTT10=
EXTT11=
EXTT12=
EXTT13=
PLAYORDER=
